# Noesis .obj export.
#
mtllib machinegun.mtl
g
v  -1715.250366 -17560.996094 -210.413773
v  -1981.847412 -20811.208984 -3080.787109
v  -1815.075073 -21358.181641 -1597.723145
v  -1881.917114 -17015.152344 -1692.633179
v  -1930.555786 -25750.775391 -3202.597656
v  -1122.136475 -21349.148438 -1672.312866
v  -1815.075073 -21358.181641 -1597.723145
v  -1237.617310 -25741.742188 -3277.187256
v  -1022.311890 -17551.960938 -285.003418
v  -1122.136475 -21349.148438 -1672.312866
v  -2097.222656 -25204.931641 -4684.816895
v  -1981.847412 -20811.208984 -3080.787109
v  -1404.284058 -25195.896484 -4759.406738
v  -1288.908936 -20802.173828 -3155.376953
v  -1288.908936 -20802.173828 -3155.376953
v  -1188.978638 -17006.117188 -1767.222778
v  -1715.250366 -17560.996094 -210.413773
v  -1188.978638 -17006.117188 -1767.222778
v  -1881.917114 -17015.152344 -1692.633179
v  -1022.311890 -17551.960938 -285.003418
v  -1237.617310 -25741.742188 -3277.187256
v  -1288.908936 -20802.173828 -3155.376953
v  -1122.136475 -21349.148438 -1672.312866
v  -1404.284058 -25195.896484 -4759.406738
v  -1188.978638 -17006.117188 -1767.222778
v  -1122.136475 -21349.148438 -1672.312866
v  -1288.908936 -20802.173828 -3155.376953
v  -1022.311890 -17551.960938 -285.003418
v  -2097.222656 -25204.931641 -4684.816895
v  -1237.617310 -25741.742188 -3277.187256
v  -1930.555786 -25750.775391 -3202.597656
v  -1404.284058 -25195.896484 -4759.406738
v  -1716.833618 -16377.542969 -259.319641
v  -1382.158081 -17515.031250 -362.288025
v  -1355.086060 -16486.548828 13.787211
v  -1743.903442 -17405.035156 -635.255127
v  -1088.743530 -17396.492188 -705.778198
v  -1061.673706 -16369.000977 -329.842743
v  -1424.415405 -16260.007813 -602.842590
v  -1451.377441 -17287.638672 -977.793701
v  -2413.464111 -19815.015625 -4923.408203
v  -1675.234009 -19711.308594 -3350.991211
v  -1833.635986 -19192.021484 -4759.648926
v  -2255.062012 -20334.300781 -3514.750732
v  -1285.077881 -19800.302734 -5044.870605
v  -1126.675781 -20319.589844 -3636.213135
v  -1285.077881 -19800.302734 -5044.870605
v  -2413.464111 -19815.015625 -4923.408203
v  -1833.635986 -19192.021484 -4759.648926
v  -1865.900146 -20423.310547 -5208.522949
v  -1913.913086 -20536.843750 -2986.456055
v  -1620.455933 -20220.914063 -2903.829834
v  -1342.263672 -20529.390625 -3047.989746
v  -1707.605835 -20942.457031 -3800.850098
v  -1865.900146 -20423.310547 -5208.522949
v  -1636.822754 -20845.191406 -3131.493408
v  -1987.225220 -25516.166016 -3840.805908
v  -1648.492920 -26666.615234 -3945.034668
v  -1621.179810 -25626.529297 -3565.313721
v  -2014.538330 -26556.251953 -4220.526855
v  -1351.425049 -26547.607422 -4291.906250
v  -1324.111816 -25507.521484 -3912.185303
v  -1351.425049 -26547.607422 -4291.906250
v  -2014.538330 -26556.251953 -4220.526855
v  -1718.356812 -26437.396484 -4566.307129
v  -1648.492920 -26666.615234 -3945.034668
v  -1691.043701 -25397.310547 -4186.585938
v  -1718.356812 -26437.396484 -4566.307129
v  -1967.349243 -25293.681641 -4451.521973
v  -1708.145142 -25760.490234 -4389.449219
v  -1698.019287 -25374.402344 -4248.614746
v  -1977.580811 -25678.638672 -4593.201172
v  -1489.441895 -25672.273438 -4645.745605
v  -1479.210327 -25287.316406 -4504.066895
v  -1489.441895 -25672.273438 -4645.745605
v  -1977.580811 -25678.638672 -4593.201172
v  -1759.765991 -25591.566406 -4848.546387
v  -1708.145142 -25760.490234 -4389.449219
v  -1749.640137 -25205.478516 -4707.711914
v  -1759.765991 -25591.566406 -4848.546387
v  -1135.775513 -25772.134766 -2848.703369
v  -1938.073120 -25782.595703 -2762.342041
v  -1579.811890 -25638.238281 -3182.424072
v  -1495.136597 -25915.375000 -2429.358887
v  -1738.713623 -17464.460938 -1874.430420
v  -1864.274292 -19260.414063 -3258.426758
v  -1810.520874 -20195.662109 -2872.339600
v  -1803.636230 -18102.501953 -2554.844482
v  -1810.520874 -20195.662109 -2872.339600
v  -1481.517822 -19255.423828 -3299.627441
v  -1427.764282 -20190.671875 -2913.540283
v  -1864.274292 -19260.414063 -3258.426758
v  -1803.636230 -18102.501953 -2554.844482
v  -1420.879639 -18097.511719 -2596.045410
v  -1986.439453 -17070.134766 -4128.041504
v  -1420.879639 -18097.511719 -2596.045410
v  -1803.636230 -18102.501953 -2554.844482
v  -1603.682861 -17065.142578 -4169.242188
v  -1738.713623 -17464.460938 -1874.430420
v  -1967.365723 -16343.107422 -3862.784424
v  -1584.609131 -16338.117188 -3903.985107
v  -1355.957153 -17459.470703 -1915.631348
v  -1420.879639 -18097.511719 -2596.045410
v  -1427.764282 -20190.671875 -2913.540283
v  -1481.517822 -19255.423828 -3299.627441
v  -1355.957153 -17459.470703 -1915.631348
v  -1967.365723 -16343.107422 -3862.784424
v  -1603.682861 -17065.142578 -4169.242188
v  -1986.439453 -17070.134766 -4128.041504
v  -1584.609131 -16338.117188 -3903.985107

vt  0.007813 -3.250000 0.000000
vt  0.281250 -3.718750 0.000000
vt  0.281250 -3.250000 0.000000
vt  0.007813 -3.718750 0.000000
vt  0.625000 -3.250000 0.000000
vt  0.304688 -3.031250 0.000000
vt  0.304688 -3.250000 0.000000
vt  0.625000 -3.031250 0.000000
vt  0.007813 -3.031250 0.000000
vt  0.281250 -3.031250 0.000000
vt  0.625000 -3.718750 0.000000
vt  0.304688 -3.718750 0.000000
vt  0.625000 -3.937500 0.000000
vt  0.304688 -3.968750 0.000000
vt  0.281250 -3.937500 0.000000
vt  0.007813 -3.968750 0.000000
vt  0.843750 -3.031250 0.000000
vt  0.906250 -3.562500 0.000000
vt  0.843750 -3.562500 0.000000
vt  0.906250 -3.031250 0.000000
vt  0.625000 -3.250000 0.000000
vt  0.304688 -3.718750 0.000000
vt  0.304688 -3.250000 0.000000
vt  0.625000 -3.718750 0.000000
vt  0.007813 -3.718750 0.000000
vt  0.281250 -3.250000 0.000000
vt  0.281250 -3.718750 0.000000
vt  0.007813 -3.250000 0.000000
vt  0.843750 -3.531250 0.000000
vt  0.906250 -3.031250 0.000000
vt  0.851563 -3.031250 0.000000
vt  0.898438 -3.562500 0.000000
vt  0.640625 -3.656250 0.000000
vt  0.687500 -3.968750 0.000000
vt  0.687500 -3.656250 0.000000
vt  0.640625 -3.968750 0.000000
vt  0.734375 -3.968750 0.000000
vt  0.734375 -3.656250 0.000000
vt  0.687500 -3.656250 0.000000
vt  0.687500 -3.968750 0.000000
vt  0.687500 -3.625000 0.000000
vt  0.742188 -3.187500 0.000000
vt  0.742188 -3.625000 0.000000
vt  0.687500 -3.187500 0.000000
vt  0.687500 -3.625000 0.000000
vt  0.687500 -3.187500 0.000000
vt  0.906250 -3.562500 0.000000
vt  0.843750 -3.031250 0.000000
vt  0.906250 -3.031250 0.000000
vt  0.843750 -3.562500 0.000000
vt  0.687500 -3.031250 0.000000
vt  0.710938 -3.031250 0.000000
vt  0.687500 -3.031250 0.000000
vt  0.640625 -3.187500 0.000000
vt  0.640625 -3.625000 0.000000
vt  0.664063 -3.031250 0.000000
vt  0.750000 -3.875000 0.000000
vt  0.695313 -3.656250 0.000000
vt  0.695313 -3.875000 0.000000
vt  0.750000 -3.656250 0.000000
vt  0.640625 -3.656250 0.000000
vt  0.640625 -3.875000 0.000000
vt  0.812500 -3.968750 0.000000
vt  0.750000 -3.718750 0.000000
vt  0.750000 -3.968750 0.000000
vt  0.812500 -3.718750 0.000000
vt  0.695313 -3.906250 0.000000
vt  0.695313 -3.656250 0.000000
vt  0.750000 -3.875000 0.000000
vt  0.695313 -3.656250 0.000000
vt  0.695313 -3.875000 0.000000
vt  0.750000 -3.656250 0.000000
vt  0.640625 -3.656250 0.000000
vt  0.640625 -3.875000 0.000000
vt  0.812500 -3.968750 0.000000
vt  0.750000 -3.718750 0.000000
vt  0.750000 -3.968750 0.000000
vt  0.812500 -3.718750 0.000000
vt  0.695313 -3.875000 0.000000
vt  0.695313 -3.656250 0.000000
vt  0.906250 -3.968750 0.000000
vt  0.843750 -3.718750 0.000000
vt  0.843750 -3.937500 0.000000
vt  0.906250 -3.718750 0.000000
vt  0.992188 -3.031250 0.000000
vt  0.937500 -3.562500 0.000000
vt  0.992188 -3.781250 0.000000
vt  0.953125 -3.218750 0.000000
vt  0.906250 -3.031250 0.000000
vt  0.843750 -3.562500 0.000000
vt  0.906250 -3.562500 0.000000
vt  0.843750 -3.031250 0.000000
vt  0.906250 -3.031250 0.000000
vt  0.906250 -3.562500 0.000000
vt  0.765625 -3.593750 0.000000
vt  0.765625 -3.062500 0.000000
vt  0.765625 -3.062500 0.000000
vt  0.765625 -3.593750 0.000000
vt  0.835938 -3.031250 0.000000
vt  0.820313 -3.656250 0.000000
vt  0.820313 -3.656250 0.000000
vt  0.835938 -3.031250 0.000000
vt  0.953125 -3.218750 0.000000
vt  0.992188 -3.781250 0.000000
vt  0.937500 -3.562500 0.000000
vt  0.992188 -3.031250 0.000000
vt  0.906250 -3.031250 0.000000
vt  0.843750 -3.562500 0.000000
vt  0.843750 -3.031250 0.000000
vt  0.906250 -3.562500 0.000000

vn  -0.611356 0.502797 0.611097
vn  -0.777187 0.233825 -0.584215
vn  -0.628788 -0.252203 0.735541
vn  -0.481412 0.658839 -0.578078
vn  -0.330264 -0.669265 0.665590
vn  0.777185 -0.233873 0.584198
vn  -0.628788 -0.252203 0.735541
vn  0.681298 -0.731923 0.011039
vn  0.501629 0.108007 0.858314
vn  0.777185 -0.233873 0.584198
vn  -0.714183 -0.520129 -0.468411
vn  -0.777187 0.233825 -0.584215
vn  0.310089 -0.097604 -0.945684
vn  0.628789 0.252276 -0.735514
vn  0.628789 0.252276 -0.735514
vn  0.644212 0.749248 -0.153682
vn  -0.611356 0.502797 0.611097
vn  0.644212 0.749248 -0.153682
vn  -0.481412 0.658839 -0.578078
vn  0.501629 0.108007 0.858314
vn  0.681298 -0.731923 0.011039
vn  0.628789 0.252276 -0.735514
vn  0.777185 -0.233873 0.584198
vn  0.310089 -0.097604 -0.945684
vn  0.644212 0.749248 -0.153682
vn  0.777185 -0.233873 0.584198
vn  0.628789 0.252276 -0.735514
vn  0.501629 0.108007 0.858314
vn  -0.714183 -0.520129 -0.468411
vn  0.681298 -0.731923 0.011039
vn  -0.330264 -0.669265 0.665590
vn  0.310089 -0.097604 -0.945684
vn  -0.662871 0.535712 0.523083
vn  -0.216348 -0.330317 0.918741
vn  0.388076 0.089687 0.917253
vn  -0.976452 0.096095 -0.193153
vn  0.976483 -0.096246 0.192920
vn  0.694522 0.716281 -0.067677
vn  -0.368425 0.677181 -0.636937
vn  0.214503 0.330082 -0.919257
vn  -0.887199 0.178402 -0.425501
vn  0.050006 0.820800 0.569023
vn  -0.044434 0.954803 -0.293901
vn  -0.923040 -0.252786 0.289995
vn  0.771221 0.200125 -0.604291
vn  0.992732 -0.063458 0.102259
vn  0.771221 0.200125 -0.604291
vn  -0.887199 0.178402 -0.425501
vn  -0.044434 0.954803 -0.293901
vn  -0.083660 -0.537542 -0.839077
vn  -0.821942 0.085067 0.563183
vn  0.070792 0.662187 0.745987
vn  0.944874 -0.133992 0.298763
vn  0.151243 -0.977589 -0.146443
vn  -0.083660 -0.537542 -0.839077
vn  -0.293042 -0.941188 0.168200
vn  -0.910253 -0.120696 0.396071
vn  -0.206853 -0.684546 0.699005
vn  0.413200 -0.321855 0.851866
vn  -0.743976 -0.553832 -0.373859
vn  0.710855 -0.698201 -0.084857
vn  0.909271 0.121459 -0.398088
vn  0.710855 -0.698201 -0.084857
vn  -0.743976 -0.553832 -0.373859
vn  0.184468 -0.081366 -0.979465
vn  -0.206853 -0.684546 0.699005
vn  -0.413764 0.321780 -0.851620
vn  0.184468 -0.081366 -0.979465
vn  -0.910348 -0.120538 0.395900
vn  -0.207472 -0.685334 0.698049
vn  0.413717 -0.322398 0.851410
vn  -0.744918 -0.553772 -0.372067
vn  0.711152 -0.697952 -0.084417
vn  0.910043 0.120775 -0.396528
vn  0.711152 -0.697952 -0.084417
vn  -0.744918 -0.553772 -0.372067
vn  0.186073 -0.081980 -0.979110
vn  -0.207472 -0.685334 0.698049
vn  -0.415133 0.322206 -0.850792
vn  0.186073 -0.081980 -0.979110
vn  -0.023711 -0.939066 -0.342918
vn  -0.025606 -0.939091 -0.342714
vn  0.024555 0.939404 0.341931
vn  0.024755 0.938749 0.343710
vn  -0.870847 0.378515 0.313611
vn  -0.813898 0.041100 -0.579552
vn  -0.528540 -0.349706 -0.773532
vn  -0.739115 0.058769 -0.671011
vn  -0.528540 -0.349706 -0.773532
vn  0.164867 0.076990 -0.983306
vn  0.847249 -0.160360 -0.506413
vn  -0.813898 0.041100 -0.579552
vn  -0.739115 0.058769 -0.671011
vn  0.742231 -0.296949 -0.600762
vn  -0.695534 -0.431546 -0.574456
vn  0.742231 -0.296949 -0.600762
vn  -0.739115 0.058769 -0.671011
vn  0.550051 -0.039769 -0.834183
vn  -0.870847 0.378515 0.313611
vn  -0.502261 0.667639 -0.549538
vn  0.419509 0.907305 -0.028466
vn  0.956144 0.288146 0.052551
vn  0.742231 -0.296949 -0.600762
vn  0.847249 -0.160360 -0.506413
vn  0.164867 0.076990 -0.983306
vn  0.956144 0.288146 0.052551
vn  -0.502261 0.667639 -0.549538
vn  0.550051 -0.039769 -0.834183
vn  -0.695534 -0.431546 -0.574456
vn  0.419509 0.907305 -0.028466

g rdmobj00
usemtl ffdtex0
f  1/1/1 2/2/2 3/3/3
f  4/4/4 2/2/2 1/1/1
f  5/5/5 6/6/6 7/7/7
f  8/8/8 6/6/6 5/5/5
f  3/3/3 9/9/9 1/1/1
f  10/10/10 9/9/9 3/3/3
f  11/11/11 7/7/7 12/12/12
f  5/5/5 7/7/7 11/11/11
f  13/13/13 12/12/12 14/14/14
f  11/11/11 12/12/12 13/13/13
f  15/15/15 4/4/4 16/16/16
f  2/2/2 4/4/4 15/15/15
f  17/17/17 18/18/18 19/19/19
f  20/20/20 18/18/18 17/17/17
f  21/21/21 22/22/22 23/23/23
f  24/24/24 22/22/22 21/21/21
f  25/25/25 26/26/26 27/27/27
f  28/28/28 26/26/26 25/25/25
f  29/29/29 30/30/30 31/31/31
f  32/32/32 30/30/30 29/29/29
f  33/33/33 34/34/34 35/35/35
f  36/36/36 34/34/34 33/33/33
f  35/35/35 37/37/37 38/38/38
f  34/34/34 37/37/37 35/35/35
f  33/33/33 38/38/38 39/39/39
f  35/35/35 38/38/38 33/33/33
f  39/39/39 36/36/36 33/33/33
f  40/40/40 36/36/36 39/39/39
f  38/38/38 40/40/40 39/39/39
f  37/37/37 40/40/40 38/38/38
f  41/41/41 42/42/42 43/43/43
f  44/44/44 42/42/42 41/41/41
f  45/45/45 42/42/42 46/46/46
f  43/43/43 42/42/42 45/45/45
f  47/47/47 48/48/48 49/49/49
f  50/50/50 48/48/48 47/47/47
f  51/51/51 42/42/42 44/44/44
f  52/52/52 42/42/42 51/51/51
f  42/42/42 53/53/53 46/46/46
f  52/52/52 53/53/53 42/42/42
f  41/41/41 54/54/54 44/44/44
f  55/55/55 54/54/54 41/41/41
f  56/56/56 44/44/44 54/54/54
f  51/51/51 44/44/44 56/56/56
f  53/53/53 54/54/54 46/46/46
f  56/56/56 54/54/54 53/53/53
f  45/45/45 54/54/54 55/55/55
f  46/46/46 54/54/54 45/45/45
f  57/57/57 58/58/58 59/59/59
f  60/60/60 58/58/58 57/57/57
f  59/59/59 61/61/61 62/62/62
f  58/58/58 61/61/61 59/59/59
f  63/63/63 64/64/64 65/65/65
f  66/66/66 64/64/64 63/63/63
f  67/67/67 60/60/60 57/57/57
f  68/68/68 60/60/60 67/67/67
f  62/62/62 68/68/68 67/67/67
f  61/61/61 68/68/68 62/62/62
f  69/69/69 70/70/70 71/71/71
f  72/72/72 70/70/70 69/69/69
f  71/71/71 73/73/73 74/74/74
f  70/70/70 73/73/73 71/71/71
f  75/75/75 76/76/76 77/77/77
f  78/78/78 76/76/76 75/75/75
f  79/79/79 72/72/72 69/69/69
f  80/80/80 72/72/72 79/79/79
f  74/74/74 80/80/80 79/79/79
f  73/73/73 80/80/80 74/74/74
f  81/81/81 82/82/82 83/83/83
f  84/84/84 82/82/82 81/81/81
f  84/84/84 83/83/83 82/82/82
f  81/81/81 83/83/83 84/84/84
f  85/85/85 86/86/86 87/87/87
f  88/88/88 86/86/86 85/85/85
f  89/89/89 90/90/90 91/91/91
f  92/92/92 90/90/90 89/89/89
f  93/93/93 90/90/90 92/92/92
f  94/94/94 90/90/90 93/93/93
f  95/95/95 96/96/96 97/97/97
f  98/98/98 96/96/96 95/95/95
f  99/99/99 95/95/95 97/97/97
f  100/100/100 95/95/95 99/99/99
f  99/99/99 101/101/101 100/100/100
f  102/102/102 101/101/101 99/99/99
f  103/103/103 104/104/104 105/105/105
f  106/106/106 104/104/104 103/103/103
f  98/98/98 102/102/102 96/96/96
f  101/101/101 102/102/102 98/98/98
f  107/107/107 108/108/108 109/109/109
f  110/110/110 108/108/108 107/107/107

g
